<svg xmlns="http://www.w3.org/2000/svg" xmlns:xlink="http://www.w3.org/1999/xlink" width="300" zoomAndPan="magnify" viewBox="0 0 224.87999 149.999998" height="200" preserveAspectRatio="xMidYMid meet" version="1.0"><defs><g/><clipPath id="id1"><path d="M 15 113 L 58.710938 113 L 58.710938 116.078125 L 15 116.078125 Z M 15 113 " clip-rule="nonzero"/></clipPath><clipPath id="id2"><path d="M 8.488281 97 L 26 97 L 26 115 L 8.488281 115 Z M 8.488281 97 " clip-rule="nonzero"/></clipPath><clipPath id="id3"><path d="M 8.488281 42 L 26 42 L 26 48 L 8.488281 48 Z M 8.488281 42 " clip-rule="nonzero"/></clipPath><clipPath id="id4"><path d="M 8.488281 33.621094 L 26 33.621094 L 26 43 L 8.488281 43 Z M 8.488281 33.621094 " clip-rule="nonzero"/></clipPath><clipPath id="id5"><path d="M 8.488281 47 L 17 47 L 17 98 L 8.488281 98 Z M 8.488281 47 " clip-rule="nonzero"/></clipPath></defs><g clip-path="url(#id1)"><path fill="#8095a0" d="M 57.316406 116.0625 L 16.859375 116.0625 C 16.089844 116.0625 15.464844 115.433594 15.464844 114.664062 C 15.464844 113.894531 16.089844 113.265625 16.859375 113.265625 L 57.316406 113.265625 C 58.085938 113.265625 58.710938 113.894531 58.710938 114.664062 C 58.710938 115.433594 58.085938 116.0625 57.316406 116.0625 " fill-opacity="1" fill-rule="nonzero"/></g><g clip-path="url(#id2)"><path fill="#f2b481" d="M 8.488281 97.902344 L 16.859375 114.664062 L 25.230469 97.902344 Z M 8.488281 97.902344 " fill-opacity="1" fill-rule="nonzero"/></g><g clip-path="url(#id3)"><path fill="#238892" d="M 25.230469 47.609375 L 8.488281 47.609375 L 8.488281 42.023438 L 25.230469 42.023438 L 25.230469 47.609375 " fill-opacity="1" fill-rule="nonzero"/></g><g clip-path="url(#id4)"><path fill="#cfdfe8" d="M 25.230469 42.023438 L 8.488281 42.023438 L 8.488281 36.433594 C 8.488281 34.890625 9.738281 33.640625 11.277344 33.640625 L 22.441406 33.640625 C 23.980469 33.640625 25.230469 34.890625 25.230469 36.433594 L 25.230469 42.023438 " fill-opacity="1" fill-rule="nonzero"/></g><path fill="#394d5c" d="M 12.675781 106.28125 L 21.042969 106.28125 L 16.859375 114.664062 Z M 12.675781 106.28125 " fill-opacity="1" fill-rule="nonzero"/><g clip-path="url(#id5)"><path fill="#e9686a" d="M 8.488281 47.609375 L 8.488281 97.902344 L 16.859375 97.902344 L 16.859375 47.609375 L 8.488281 47.609375 " fill-opacity="1" fill-rule="nonzero"/></g><path fill="#fdbd40" d="M 25.230469 47.609375 L 16.859375 47.609375 L 16.859375 97.902344 L 25.230469 97.902344 L 25.230469 47.609375 " fill-opacity="1" fill-rule="nonzero"/><g fill="#ffa732" fill-opacity="1"><g transform="translate(40.313868, 77.558235)"><g><path d="M 4.96875 -16.515625 L 4.96875 -3.296875 L 10.640625 -3.296875 L 10.640625 0 L 1.203125 0 L 1.203125 -16.515625 Z M 4.96875 -16.515625 "/></g></g></g><g fill="#ffa732" fill-opacity="1"><g transform="translate(51.624014, 77.558235)"><g><path d="M 1.53125 -15.984375 C 1.945312 -16.398438 2.441406 -16.609375 3.015625 -16.609375 C 3.597656 -16.609375 4.09375 -16.398438 4.5 -15.984375 C 4.914062 -15.578125 5.125 -15.085938 5.125 -14.515625 C 5.125 -13.941406 4.914062 -13.445312 4.5 -13.03125 C 4.09375 -12.613281 3.597656 -12.40625 3.015625 -12.40625 C 2.441406 -12.40625 1.945312 -12.613281 1.53125 -13.03125 C 1.125 -13.445312 0.921875 -13.941406 0.921875 -14.515625 C 0.921875 -15.085938 1.125 -15.578125 1.53125 -15.984375 Z M 1.203125 -10.265625 L 1.203125 0 L 4.75 0 L 4.75 -10.265625 Z M 1.203125 -10.265625 "/></g></g></g><g fill="#ffa732" fill-opacity="1"><g transform="translate(57.669439, 77.558235)"><g><path d="M 11.765625 -8.984375 C 12.722656 -7.929688 13.203125 -6.644531 13.203125 -5.125 C 13.203125 -3.601562 12.722656 -2.316406 11.765625 -1.265625 C 10.804688 -0.222656 9.585938 0.296875 8.109375 0.296875 C 6.742188 0.296875 5.625 -0.1875 4.75 -1.15625 L 4.703125 -1.15625 L 4.703125 0 L 1.203125 0 L 1.203125 -17.21875 L 4.75 -17.21875 L 4.75 -9.28125 C 5.625 -10.132812 6.742188 -10.5625 8.109375 -10.5625 C 9.585938 -10.5625 10.804688 -10.035156 11.765625 -8.984375 Z M 8.78125 -3.390625 C 9.226562 -3.835938 9.453125 -4.414062 9.453125 -5.125 C 9.453125 -5.832031 9.21875 -6.410156 8.75 -6.859375 C 8.289062 -7.316406 7.722656 -7.546875 7.046875 -7.546875 C 6.378906 -7.546875 5.8125 -7.316406 5.34375 -6.859375 C 4.882812 -6.410156 4.65625 -5.832031 4.65625 -5.125 C 4.65625 -4.425781 4.878906 -3.847656 5.328125 -3.390625 C 5.773438 -2.941406 6.347656 -2.71875 7.046875 -2.71875 C 7.765625 -2.71875 8.34375 -2.941406 8.78125 -3.390625 Z M 8.78125 -3.390625 "/></g></g></g><g fill="#ffa732" fill-opacity="1"><g transform="translate(71.341705, 77.558235)"><g><path d="M 1.203125 0 L 1.203125 -10.265625 L 4.75 -10.265625 L 4.75 -8.78125 L 4.78125 -8.78125 C 4.8125 -8.832031 4.851562 -8.898438 4.90625 -8.984375 C 4.96875 -9.066406 5.097656 -9.207031 5.296875 -9.40625 C 5.503906 -9.601562 5.71875 -9.78125 5.9375 -9.9375 C 6.164062 -10.101562 6.457031 -10.25 6.8125 -10.375 C 7.175781 -10.5 7.546875 -10.5625 7.921875 -10.5625 C 8.304688 -10.5625 8.6875 -10.507812 9.0625 -10.40625 C 9.4375 -10.300781 9.710938 -10.195312 9.890625 -10.09375 L 10.171875 -9.921875 L 8.6875 -6.921875 C 8.25 -7.296875 7.632812 -7.484375 6.84375 -7.484375 C 6.414062 -7.484375 6.046875 -7.390625 5.734375 -7.203125 C 5.429688 -7.015625 5.21875 -6.785156 5.09375 -6.515625 C 4.96875 -6.253906 4.878906 -6.03125 4.828125 -5.84375 C 4.773438 -5.65625 4.75 -5.507812 4.75 -5.40625 L 4.75 0 Z M 1.203125 0 "/></g></g></g><g fill="#ffa732" fill-opacity="1"><g transform="translate(81.310646, 77.558235)"><g><path d="M 11.59375 -4.640625 L 4.140625 -4.640625 C 4.140625 -3.921875 4.375 -3.382812 4.84375 -3.03125 C 5.3125 -2.6875 5.816406 -2.515625 6.359375 -2.515625 C 6.929688 -2.515625 7.382812 -2.59375 7.71875 -2.75 C 8.050781 -2.90625 8.429688 -3.207031 8.859375 -3.65625 L 11.421875 -2.375 C 10.359375 -0.59375 8.585938 0.296875 6.109375 0.296875 C 4.554688 0.296875 3.222656 -0.226562 2.109375 -1.28125 C 1.003906 -2.34375 0.453125 -3.617188 0.453125 -5.109375 C 0.453125 -6.609375 1.003906 -7.890625 2.109375 -8.953125 C 3.222656 -10.023438 4.554688 -10.5625 6.109375 -10.5625 C 7.734375 -10.5625 9.054688 -10.09375 10.078125 -9.15625 C 11.097656 -8.21875 11.609375 -6.875 11.609375 -5.125 C 11.609375 -4.882812 11.601562 -4.722656 11.59375 -4.640625 Z M 4.25 -6.609375 L 8.140625 -6.609375 C 8.066406 -7.140625 7.859375 -7.546875 7.515625 -7.828125 C 7.171875 -8.117188 6.734375 -8.265625 6.203125 -8.265625 C 5.617188 -8.265625 5.148438 -8.109375 4.796875 -7.796875 C 4.453125 -7.492188 4.269531 -7.097656 4.25 -6.609375 Z M 4.25 -6.609375 "/></g></g></g><g fill="#ffa732" fill-opacity="1"><g transform="translate(93.381474, 77.558235)"><g><path d="M 1.203125 0 L 1.203125 -10.265625 L 4.75 -10.265625 L 4.75 -8.78125 L 4.78125 -8.78125 C 4.8125 -8.832031 4.851562 -8.898438 4.90625 -8.984375 C 4.96875 -9.066406 5.097656 -9.207031 5.296875 -9.40625 C 5.503906 -9.601562 5.71875 -9.78125 5.9375 -9.9375 C 6.164062 -10.101562 6.457031 -10.25 6.8125 -10.375 C 7.175781 -10.5 7.546875 -10.5625 7.921875 -10.5625 C 8.304688 -10.5625 8.6875 -10.507812 9.0625 -10.40625 C 9.4375 -10.300781 9.710938 -10.195312 9.890625 -10.09375 L 10.171875 -9.921875 L 8.6875 -6.921875 C 8.25 -7.296875 7.632812 -7.484375 6.84375 -7.484375 C 6.414062 -7.484375 6.046875 -7.390625 5.734375 -7.203125 C 5.429688 -7.015625 5.21875 -6.785156 5.09375 -6.515625 C 4.96875 -6.253906 4.878906 -6.03125 4.828125 -5.84375 C 4.773438 -5.65625 4.75 -5.507812 4.75 -5.40625 L 4.75 0 Z M 1.203125 0 "/></g></g></g><g fill="#ffa732" fill-opacity="1"><g transform="translate(103.350415, 77.558235)"><g><path d="M 1.796875 -13.296875 L 5.859375 -16.8125 L 7.6875 -14.515625 L 2.921875 -11.75 Z M 1.203125 -10.265625 L 1.203125 0 L 4.75 0 L 4.75 -10.265625 Z M 1.203125 -10.265625 "/></g></g></g><g fill="#ffa732" fill-opacity="1"><g transform="translate(109.29575, 77.558235)"><g><path d="M 1.890625 -1.265625 C 0.929688 -2.316406 0.453125 -3.601562 0.453125 -5.125 C 0.453125 -6.644531 0.929688 -7.929688 1.890625 -8.984375 C 2.859375 -10.035156 4.082031 -10.5625 5.5625 -10.5625 C 6.925781 -10.5625 8.046875 -10.132812 8.921875 -9.28125 L 8.921875 -10.265625 L 12.46875 -10.265625 L 12.46875 0 L 8.96875 0 L 8.96875 -1.15625 L 8.921875 -1.15625 C 8.046875 -0.1875 6.925781 0.296875 5.5625 0.296875 C 4.082031 0.296875 2.859375 -0.222656 1.890625 -1.265625 Z M 4.90625 -6.859375 C 4.445312 -6.410156 4.21875 -5.832031 4.21875 -5.125 C 4.21875 -4.414062 4.4375 -3.835938 4.875 -3.390625 C 5.320312 -2.941406 5.90625 -2.71875 6.625 -2.71875 C 7.320312 -2.71875 7.890625 -2.941406 8.328125 -3.390625 C 8.773438 -3.847656 9 -4.425781 9 -5.125 C 9 -5.832031 8.769531 -6.410156 8.3125 -6.859375 C 7.851562 -7.316406 7.289062 -7.546875 6.625 -7.546875 C 5.945312 -7.546875 5.375 -7.316406 4.90625 -6.859375 Z M 4.90625 -6.859375 "/></g></g></g><g fill="#ffa732" fill-opacity="1"><g transform="translate(122.968016, 77.558235)"><g/></g></g><g fill="#ffa732" fill-opacity="1"><g transform="translate(128.432917, 77.558235)"><g><path d="M 1.203125 -16.515625 L 6.328125 -16.515625 C 7.867188 -16.515625 9.097656 -16.179688 10.015625 -15.515625 C 10.941406 -14.859375 11.40625 -13.789062 11.40625 -12.3125 C 11.40625 -10.65625 10.71875 -9.472656 9.34375 -8.765625 C 11.695312 -8.347656 12.875 -6.960938 12.875 -4.609375 C 12.875 -3.210938 12.390625 -2.09375 11.421875 -1.25 C 10.460938 -0.414062 9.144531 0 7.46875 0 L 1.203125 0 Z M 4.96875 -10.046875 L 5.265625 -10.046875 C 6.109375 -10.046875 6.734375 -10.191406 7.140625 -10.484375 C 7.554688 -10.773438 7.765625 -11.253906 7.765625 -11.921875 C 7.765625 -13.046875 6.929688 -13.609375 5.265625 -13.609375 L 4.96875 -13.609375 Z M 4.96875 -2.90625 L 6.140625 -2.90625 C 7.984375 -2.90625 8.90625 -3.519531 8.90625 -4.75 C 8.90625 -5.476562 8.675781 -6.003906 8.21875 -6.328125 C 7.757812 -6.648438 7.066406 -6.8125 6.140625 -6.8125 L 4.96875 -6.8125 Z M 4.96875 -2.90625 "/></g></g></g><g fill="#ffa732" fill-opacity="1"><g transform="translate(141.764881, 77.558235)"><g><path d="M 11.59375 -4.640625 L 4.140625 -4.640625 C 4.140625 -3.921875 4.375 -3.382812 4.84375 -3.03125 C 5.3125 -2.6875 5.816406 -2.515625 6.359375 -2.515625 C 6.929688 -2.515625 7.382812 -2.59375 7.71875 -2.75 C 8.050781 -2.90625 8.429688 -3.207031 8.859375 -3.65625 L 11.421875 -2.375 C 10.359375 -0.59375 8.585938 0.296875 6.109375 0.296875 C 4.554688 0.296875 3.222656 -0.226562 2.109375 -1.28125 C 1.003906 -2.34375 0.453125 -3.617188 0.453125 -5.109375 C 0.453125 -6.609375 1.003906 -7.890625 2.109375 -8.953125 C 3.222656 -10.023438 4.554688 -10.5625 6.109375 -10.5625 C 7.734375 -10.5625 9.054688 -10.09375 10.078125 -9.15625 C 11.097656 -8.21875 11.609375 -6.875 11.609375 -5.125 C 11.609375 -4.882812 11.601562 -4.722656 11.59375 -4.640625 Z M 4.25 -6.609375 L 8.140625 -6.609375 C 8.066406 -7.140625 7.859375 -7.546875 7.515625 -7.828125 C 7.171875 -8.117188 6.734375 -8.265625 6.203125 -8.265625 C 5.617188 -8.265625 5.148438 -8.109375 4.796875 -7.796875 C 4.453125 -7.492188 4.269531 -7.097656 4.25 -6.609375 Z M 4.25 -6.609375 "/></g></g></g><g fill="#ffa732" fill-opacity="1"><g transform="translate(153.835708, 77.558235)"><g><path d="M 1.203125 0 L 1.203125 -10.265625 L 4.75 -10.265625 L 4.75 -8.78125 L 4.78125 -8.78125 C 4.8125 -8.832031 4.851562 -8.898438 4.90625 -8.984375 C 4.96875 -9.066406 5.097656 -9.207031 5.296875 -9.40625 C 5.503906 -9.601562 5.71875 -9.78125 5.9375 -9.9375 C 6.164062 -10.101562 6.457031 -10.25 6.8125 -10.375 C 7.175781 -10.5 7.546875 -10.5625 7.921875 -10.5625 C 8.304688 -10.5625 8.6875 -10.507812 9.0625 -10.40625 C 9.4375 -10.300781 9.710938 -10.195312 9.890625 -10.09375 L 10.171875 -9.921875 L 8.6875 -6.921875 C 8.25 -7.296875 7.632812 -7.484375 6.84375 -7.484375 C 6.414062 -7.484375 6.046875 -7.390625 5.734375 -7.203125 C 5.429688 -7.015625 5.21875 -6.785156 5.09375 -6.515625 C 4.96875 -6.253906 4.878906 -6.03125 4.828125 -5.84375 C 4.773438 -5.65625 4.75 -5.507812 4.75 -5.40625 L 4.75 0 Z M 1.203125 0 "/></g></g></g><g fill="#ffa732" fill-opacity="1"><g transform="translate(163.80465, 77.558235)"><g><path d="M 1.796875 -10.265625 L 1.796875 -14.09375 L 5.34375 -14.09375 L 5.34375 -10.265625 L 7.5 -10.265625 L 7.5 -7.5625 L 5.34375 -7.5625 L 5.34375 -4.296875 C 5.34375 -3.347656 5.609375 -2.875 6.140625 -2.875 C 6.273438 -2.875 6.414062 -2.898438 6.5625 -2.953125 C 6.707031 -3.015625 6.820312 -3.070312 6.90625 -3.125 L 7.03125 -3.203125 L 7.90625 -0.34375 C 7.144531 0.0820312 6.273438 0.296875 5.296875 0.296875 C 4.628906 0.296875 4.054688 0.179688 3.578125 -0.046875 C 3.097656 -0.285156 2.734375 -0.597656 2.484375 -0.984375 C 2.242188 -1.378906 2.066406 -1.789062 1.953125 -2.21875 C 1.847656 -2.65625 1.796875 -3.125 1.796875 -3.625 L 1.796875 -7.5625 L 0.3125 -7.5625 L 0.3125 -10.265625 Z M 1.796875 -10.265625 "/></g></g></g><g fill="#ffa732" fill-opacity="1"><g transform="translate(171.711747, 77.558235)"><g><path d="M 1.203125 0 L 1.203125 -17.21875 L 4.75 -17.21875 L 4.75 -9.1875 L 4.78125 -9.1875 C 5.707031 -10.101562 6.6875 -10.5625 7.71875 -10.5625 C 8.226562 -10.5625 8.734375 -10.492188 9.234375 -10.359375 C 9.734375 -10.234375 10.210938 -10.03125 10.671875 -9.75 C 11.140625 -9.46875 11.515625 -9.066406 11.796875 -8.546875 C 12.085938 -8.035156 12.234375 -7.441406 12.234375 -6.765625 L 12.234375 0 L 8.6875 0 L 8.6875 -5.796875 C 8.6875 -6.335938 8.515625 -6.804688 8.171875 -7.203125 C 7.835938 -7.609375 7.394531 -7.8125 6.84375 -7.8125 C 6.3125 -7.8125 5.828125 -7.601562 5.390625 -7.1875 C 4.960938 -6.769531 4.75 -6.304688 4.75 -5.796875 L 4.75 0 Z M 1.203125 0 "/></g></g></g><g fill="#ffa732" fill-opacity="1"><g transform="translate(184.943622, 77.558235)"><g><path d="M 1.53125 -15.984375 C 1.945312 -16.398438 2.441406 -16.609375 3.015625 -16.609375 C 3.597656 -16.609375 4.09375 -16.398438 4.5 -15.984375 C 4.914062 -15.578125 5.125 -15.085938 5.125 -14.515625 C 5.125 -13.941406 4.914062 -13.445312 4.5 -13.03125 C 4.09375 -12.613281 3.597656 -12.40625 3.015625 -12.40625 C 2.441406 -12.40625 1.945312 -12.613281 1.53125 -13.03125 C 1.125 -13.445312 0.921875 -13.941406 0.921875 -14.515625 C 0.921875 -15.085938 1.125 -15.578125 1.53125 -15.984375 Z M 1.203125 -10.265625 L 1.203125 0 L 4.75 0 L 4.75 -10.265625 Z M 1.203125 -10.265625 "/></g></g></g><g fill="#ffa732" fill-opacity="1"><g transform="translate(190.989046, 77.558235)"><g><path d="M 1.796875 -10.265625 L 1.796875 -14.09375 L 5.34375 -14.09375 L 5.34375 -10.265625 L 7.5 -10.265625 L 7.5 -7.5625 L 5.34375 -7.5625 L 5.34375 -4.296875 C 5.34375 -3.347656 5.609375 -2.875 6.140625 -2.875 C 6.273438 -2.875 6.414062 -2.898438 6.5625 -2.953125 C 6.707031 -3.015625 6.820312 -3.070312 6.90625 -3.125 L 7.03125 -3.203125 L 7.90625 -0.34375 C 7.144531 0.0820312 6.273438 0.296875 5.296875 0.296875 C 4.628906 0.296875 4.054688 0.179688 3.578125 -0.046875 C 3.097656 -0.285156 2.734375 -0.597656 2.484375 -0.984375 C 2.242188 -1.378906 2.066406 -1.789062 1.953125 -2.21875 C 1.847656 -2.65625 1.796875 -3.125 1.796875 -3.625 L 1.796875 -7.5625 L 0.3125 -7.5625 L 0.3125 -10.265625 Z M 1.796875 -10.265625 "/></g></g></g><g fill="#ffa732" fill-opacity="1"><g transform="translate(198.896135, 77.558235)"><g><path d="M 1.890625 -1.265625 C 0.929688 -2.316406 0.453125 -3.601562 0.453125 -5.125 C 0.453125 -6.644531 0.929688 -7.929688 1.890625 -8.984375 C 2.859375 -10.035156 4.082031 -10.5625 5.5625 -10.5625 C 6.925781 -10.5625 8.046875 -10.132812 8.921875 -9.28125 L 8.921875 -10.265625 L 12.46875 -10.265625 L 12.46875 0 L 8.96875 0 L 8.96875 -1.15625 L 8.921875 -1.15625 C 8.046875 -0.1875 6.925781 0.296875 5.5625 0.296875 C 4.082031 0.296875 2.859375 -0.222656 1.890625 -1.265625 Z M 4.90625 -6.859375 C 4.445312 -6.410156 4.21875 -5.832031 4.21875 -5.125 C 4.21875 -4.414062 4.4375 -3.835938 4.875 -3.390625 C 5.320312 -2.941406 5.90625 -2.71875 6.625 -2.71875 C 7.320312 -2.71875 7.890625 -2.941406 8.328125 -3.390625 C 8.773438 -3.847656 9 -4.425781 9 -5.125 C 9 -5.832031 8.769531 -6.410156 8.3125 -6.859375 C 7.851562 -7.316406 7.289062 -7.546875 6.625 -7.546875 C 5.945312 -7.546875 5.375 -7.316406 4.90625 -6.859375 Z M 4.90625 -6.859375 "/></g></g></g><g fill="#545454" fill-opacity="1"><g transform="translate(40.313868, 106.926669)"><g><path d="M 16.855469 -13.007812 C 16.855469 -13.855469 15.6875 -14.28125 14.617188 -14.28125 C 13.488281 -14.28125 12.117188 -13.875 11.191406 -13.097656 C 9.085938 -13.488281 6.402344 -14.523438 4.421875 -14.523438 C 2 -14.523438 0.574219 -13.300781 0.574219 -11.230469 C 0.574219 -9.546875 1.757812 -8.527344 3.476562 -8.527344 C 4.144531 -8.527344 4.867188 -8.695312 5.511719 -8.992188 C 5.660156 -9.066406 5.734375 -9.195312 5.734375 -9.34375 C 5.734375 -9.492188 5.625 -9.730469 5.367188 -9.730469 C 5.292969 -9.730469 5.234375 -9.714844 5.179688 -9.695312 C 4.644531 -9.453125 4.050781 -9.304688 3.496094 -9.304688 C 2.21875 -9.304688 1.367188 -9.933594 1.351562 -11.230469 C 1.351562 -12.804688 2.480469 -13.726562 4.386719 -13.726562 C 6.476562 -13.726562 8.898438 -12.785156 10.527344 -12.433594 C 10.417969 -12.265625 10.285156 -12.101562 10.195312 -11.933594 C 9.417969 -10.601562 8.769531 -8.566406 8.308594 -7.066406 C 7.011719 -3.199219 6.347656 0.386719 3.199219 0.351562 C 1.851562 0.351562 0.777344 -0.628906 0.777344 -2.203125 C 0.777344 -3.886719 2.367188 -5.347656 3.996094 -5.347656 C 4.21875 -5.347656 4.386719 -5.511719 4.386719 -5.734375 C 4.386719 -5.957031 4.21875 -6.125 3.996094 -6.125 C 1.960938 -6.125 0 -4.386719 0 -2.203125 C 0 -0.296875 1.3125 1.128906 3.199219 1.128906 C 6.476562 1.183594 7.417969 -1.441406 9.046875 -6.828125 C 9.507812 -8.289062 10.136719 -10.304688 10.859375 -11.542969 C 11.027344 -11.804688 11.210938 -12.042969 11.433594 -12.265625 C 12.597656 -12.042969 13.746094 -11.894531 14.652344 -11.894531 C 15.949219 -11.894531 16.816406 -12.171875 16.855469 -13.007812 Z M 14.652344 -12.671875 C 14.042969 -12.671875 13.191406 -12.765625 12.304688 -12.914062 C 12.933594 -13.265625 13.875 -13.507812 14.597656 -13.507812 C 15.132812 -13.507812 16.058594 -13.300781 16.058594 -13.023438 C 16.058594 -12.765625 15.523438 -12.671875 14.652344 -12.671875 Z M 14.652344 -12.671875 "/></g></g></g><g fill="#545454" fill-opacity="1"><g transform="translate(51.763783, 106.926669)"><g><path d="M 8.269531 -4.402344 C 8.214844 -4.421875 8.160156 -4.441406 8.105469 -4.441406 C 7.957031 -4.441406 7.808594 -4.347656 7.753906 -4.199219 C 6.699219 -1.832031 5.976562 -0.777344 5.085938 -0.777344 C 4.699219 -0.777344 4.53125 -1.015625 4.53125 -1.554688 C 4.53125 -2.054688 4.957031 -3.550781 5.660156 -5.457031 C 5.9375 -6.199219 6.289062 -7.195312 6.699219 -8.269531 C 6.789062 -8.511719 6.605469 -8.789062 6.308594 -8.789062 C 6.160156 -8.789062 6.011719 -8.695312 5.957031 -8.546875 C 4.996094 -5.921875 4.3125 -3.960938 3.664062 -2.664062 C 3.050781 -1.40625 2.292969 -0.777344 1.535156 -0.777344 C 0.871094 -0.777344 0.519531 -1.164062 0.519531 -1.925781 C 0.519531 -2.664062 0.722656 -3.050781 2.683594 -8.269531 C 2.773438 -8.511719 2.628906 -8.789062 2.3125 -8.789062 C 2.164062 -8.789062 2.015625 -8.695312 1.960938 -8.546875 C 0.183594 -3.941406 -0.257812 -2.847656 -0.257812 -1.925781 C -0.257812 -0.667969 0.351562 0 1.515625 0 L 1.535156 0 C 2.367188 0 3.21875 -0.554688 3.753906 -1.3125 C 3.867188 -0.5 4.273438 0 5.085938 0 C 6.328125 0 7.253906 -1.128906 8.453125 -3.886719 C 8.472656 -3.941406 8.492188 -3.996094 8.492188 -4.050781 C 8.492188 -4.199219 8.398438 -4.328125 8.269531 -4.402344 Z M 8.269531 -4.402344 "/></g></g></g><g fill="#545454" fill-opacity="1"><g transform="translate(59.181259, 106.926669)"><g/></g></g><g fill="#545454" fill-opacity="1"><g transform="translate(64.730488, 106.926669)"><g><path d="M 4.664062 -4.402344 C 4.605469 -4.421875 4.550781 -4.441406 4.496094 -4.441406 C 4.347656 -4.441406 4.199219 -4.347656 4.125 -4.21875 C 3.257812 -2.3125 2.367188 -0.777344 1.035156 -0.777344 C 0.667969 -0.777344 0.445312 -1.054688 0.445312 -1.554688 C 0.445312 -1.886719 0.648438 -2.71875 1.054688 -3.976562 C 1.589844 -5.550781 2.128906 -7.03125 2.644531 -8.511719 L 3.609375 -11.324219 C 3.683594 -11.527344 3.570312 -11.75 3.367188 -11.820312 C 3.164062 -11.878906 2.941406 -11.785156 2.867188 -11.582031 L 1.90625 -8.769531 C 1.367188 -7.234375 0.8125 -5.679688 0.316406 -4.21875 C -0.148438 -2.757812 -0.332031 -2.089844 -0.332031 -1.554688 C -0.332031 -0.667969 0.148438 0 1.035156 0 C 2.738281 0 3.773438 -1.574219 4.847656 -3.886719 C 4.867188 -3.941406 4.882812 -3.996094 4.882812 -4.050781 C 4.882812 -4.199219 4.792969 -4.328125 4.664062 -4.402344 Z M 4.664062 -4.402344 "/></g></g></g><g fill="#545454" fill-opacity="1"><g transform="translate(68.540956, 106.926669)"><g><path d="M 3.015625 -9.695312 C 3.367188 -9.695312 3.644531 -9.972656 3.644531 -10.324219 C 3.644531 -10.675781 3.367188 -10.953125 3.015625 -10.953125 C 2.664062 -10.953125 2.367188 -10.675781 2.367188 -10.324219 C 2.367188 -9.972656 2.664062 -9.695312 3.015625 -9.695312 Z M 4.238281 -4.402344 C 4.179688 -4.421875 4.144531 -4.441406 4.089844 -4.441406 C 3.941406 -4.441406 3.792969 -4.347656 3.71875 -4.199219 C 3.035156 -2.683594 2.183594 -0.777344 1.035156 -0.777344 C 0.648438 -0.777344 0.480469 -1.015625 0.480469 -1.554688 C 0.480469 -2.351562 0.8125 -3.199219 2.609375 -8.25 C 2.71875 -8.566406 2.480469 -8.75 2.238281 -8.75 C 2.089844 -8.75 1.941406 -8.660156 1.886719 -8.492188 C 1.074219 -6.382812 -0.242188 -2.996094 -0.296875 -1.554688 C -0.332031 -0.703125 0.148438 0 1.035156 0 C 2.589844 0 3.550781 -1.886719 4.441406 -3.886719 C 4.457031 -3.941406 4.476562 -3.996094 4.476562 -4.050781 C 4.476562 -4.199219 4.386719 -4.347656 4.238281 -4.402344 Z M 4.238281 -4.402344 "/></g></g></g><g fill="#545454" fill-opacity="1"><g transform="translate(71.944486, 106.926669)"><g><path d="M 7.898438 -4.402344 C 7.84375 -4.421875 7.789062 -4.441406 7.734375 -4.441406 C 7.402344 -4.441406 7.402344 -4.125 7.105469 -3.570312 C 6.640625 -2.71875 6.160156 -1.960938 5.234375 -1.960938 C 4.902344 -1.960938 4.550781 -2.128906 4.347656 -2.367188 C 4.386719 -2.40625 4.402344 -2.460938 4.421875 -2.496094 C 5.144531 -3.773438 5.734375 -5.421875 5.753906 -6.679688 C 5.753906 -7.84375 5.367188 -8.75 4.199219 -8.75 C 3.515625 -8.75 2.921875 -8.417969 2.40625 -7.882812 C 2.71875 -8.734375 2.867188 -9.195312 3.183594 -10.121094 L 3.589844 -11.324219 C 3.683594 -11.5625 3.496094 -11.839844 3.21875 -11.839844 C 3.050781 -11.839844 2.90625 -11.75 2.847656 -11.582031 C 2.703125 -11.175781 2.554688 -10.695312 2.441406 -10.34375 C 2.386719 -10.15625 0.351562 -4.328125 0.242188 -3.996094 C 0.0195312 -3.386719 -0.332031 -2.460938 -0.332031 -1.628906 C -0.332031 -0.554688 0.128906 0 1.128906 0 C 2.277344 0 3.164062 -0.667969 3.921875 -1.703125 C 4.273438 -1.351562 4.734375 -1.183594 5.234375 -1.183594 C 6.417969 -1.183594 7.179688 -2.015625 7.789062 -3.21875 C 7.898438 -3.421875 8.140625 -3.902344 8.140625 -4.050781 C 8.140625 -4.199219 8.046875 -4.347656 7.898438 -4.402344 Z M 3.8125 -4.441406 C 3.644531 -4.441406 3.496094 -4.328125 3.441406 -4.144531 C 3.332031 -3.8125 3.3125 -3.535156 3.3125 -3.257812 C 3.3125 -2.921875 3.367188 -2.644531 3.460938 -2.40625 C 2.8125 -1.425781 2.015625 -0.777344 1.148438 -0.777344 C 0.648438 -0.777344 0.445312 -1.074219 0.445312 -1.664062 C 0.445312 -2.035156 0.574219 -2.535156 0.851562 -3.3125 C 1.589844 -5.179688 2.738281 -7.972656 4.238281 -7.972656 C 4.867188 -7.972656 4.957031 -7.457031 4.957031 -6.714844 C 4.957031 -5.808594 4.605469 -4.589844 4.125 -3.625 C 4.144531 -3.71875 4.164062 -3.828125 4.199219 -3.941406 C 4.253906 -4.199219 4.070312 -4.441406 3.8125 -4.441406 Z M 3.8125 -4.441406 "/></g></g></g><g fill="#545454" fill-opacity="1"><g transform="translate(79.010505, 106.926669)"><g><path d="M 7.640625 -4.402344 C 7.585938 -4.421875 7.53125 -4.441406 7.472656 -4.441406 C 7.328125 -4.441406 7.195312 -4.347656 7.121094 -4.199219 C 6.070312 -1.8125 5.367188 -0.777344 4.457031 -0.777344 C 4.050781 -0.777344 3.902344 -1.089844 3.902344 -1.554688 C 3.921875 -1.867188 3.960938 -2.183594 4.070312 -2.570312 C 4.179688 -3.035156 5.070312 -5.679688 5.308594 -6.289062 C 5.382812 -6.511719 5.292969 -6.753906 5.085938 -6.828125 C 4.882812 -6.902344 4.644531 -6.976562 4.386719 -7.050781 C 3.847656 -7.234375 3.21875 -7.4375 2.703125 -7.695312 C 2.921875 -8.417969 2.996094 -8.585938 2.996094 -8.878906 C 2.996094 -9.621094 2.589844 -10.101562 1.925781 -10.101562 C 1.332031 -10.101562 0.796875 -9.65625 0.796875 -8.898438 C 0.796875 -8.214844 1.183594 -7.734375 1.738281 -7.34375 L 1.515625 -6.789062 L 0.0351562 -3.570312 C 0.0195312 -3.515625 0 -3.460938 0 -3.402344 C 0 -3.257812 0.09375 -3.125 0.222656 -3.050781 C 0.277344 -3.035156 0.332031 -3.015625 0.40625 -3.015625 C 0.535156 -3.015625 0.667969 -3.089844 0.738281 -3.238281 C 2.21875 -6.476562 2.351562 -6.734375 2.421875 -6.957031 C 2.832031 -6.753906 3.035156 -6.679688 4.441406 -6.214844 C 4.273438 -5.808594 3.460938 -3.347656 3.3125 -2.757812 C 3.183594 -2.292969 3.125 -1.925781 3.125 -1.554688 C 3.125 -0.648438 3.570312 0 4.441406 0 L 4.457031 0 C 5.71875 0 6.640625 -1.128906 7.84375 -3.886719 C 7.863281 -3.941406 7.882812 -3.996094 7.882812 -4.050781 C 7.882812 -4.199219 7.789062 -4.328125 7.640625 -4.402344 Z M 2.21875 -8.898438 C 2.21875 -8.714844 2.109375 -8.382812 2.015625 -8.121094 C 1.738281 -8.34375 1.574219 -8.675781 1.574219 -8.972656 C 1.574219 -9.175781 1.683594 -9.324219 1.925781 -9.324219 C 2.070312 -9.324219 2.21875 -9.214844 2.21875 -8.898438 Z M 2.21875 -8.898438 "/></g></g></g><g fill="#545454" fill-opacity="1"><g transform="translate(85.817563, 106.926669)"><g><path d="M 6.699219 -4.402344 C 6.492188 -4.476562 6.273438 -4.386719 6.179688 -4.199219 C 5.144531 -1.8125 3.960938 -0.738281 2.441406 -0.777344 C 1.332031 -0.8125 0.738281 -1.460938 0.777344 -2.515625 C 0.796875 -2.90625 0.851562 -3.257812 0.980469 -3.738281 C 3.035156 -4.238281 5.789062 -5.421875 5.789062 -7.382812 C 5.789062 -8.269531 5.144531 -8.75 4.21875 -8.75 C 2.035156 -8.75 0.109375 -4.902344 0 -2.535156 C -0.0351562 -1.015625 0.886719 0 2.421875 0 C 4.292969 0 5.699219 -1.222656 6.902344 -3.886719 C 6.917969 -3.941406 6.9375 -3.976562 6.9375 -4.035156 C 6.9375 -4.179688 6.84375 -4.328125 6.699219 -4.402344 Z M 1.277344 -4.625 C 1.867188 -6.050781 2.941406 -7.972656 4.21875 -7.972656 C 4.625 -7.972656 5.015625 -7.882812 5.015625 -7.382812 C 5.015625 -6.011719 2.8125 -5.105469 1.277344 -4.625 Z M 1.277344 -4.625 "/></g></g></g><g fill="#545454" fill-opacity="1"><g transform="translate(91.681252, 106.926669)"><g><path d="M 7.640625 -4.402344 C 7.585938 -4.421875 7.53125 -4.441406 7.472656 -4.441406 C 7.328125 -4.441406 7.195312 -4.347656 7.121094 -4.199219 C 6.070312 -1.8125 5.367188 -0.777344 4.457031 -0.777344 C 4.050781 -0.777344 3.902344 -1.089844 3.902344 -1.554688 C 3.921875 -1.867188 3.960938 -2.183594 4.070312 -2.570312 C 4.179688 -3.035156 5.070312 -5.679688 5.308594 -6.289062 C 5.382812 -6.511719 5.292969 -6.753906 5.085938 -6.828125 C 4.882812 -6.902344 4.644531 -6.976562 4.386719 -7.050781 C 3.847656 -7.234375 3.21875 -7.4375 2.703125 -7.695312 C 2.921875 -8.417969 2.996094 -8.585938 2.996094 -8.878906 C 2.996094 -9.621094 2.589844 -10.101562 1.925781 -10.101562 C 1.332031 -10.101562 0.796875 -9.65625 0.796875 -8.898438 C 0.796875 -8.214844 1.183594 -7.734375 1.738281 -7.34375 L 1.515625 -6.789062 L 0.0351562 -3.570312 C 0.0195312 -3.515625 0 -3.460938 0 -3.402344 C 0 -3.257812 0.09375 -3.125 0.222656 -3.050781 C 0.277344 -3.035156 0.332031 -3.015625 0.40625 -3.015625 C 0.535156 -3.015625 0.667969 -3.089844 0.738281 -3.238281 C 2.21875 -6.476562 2.351562 -6.734375 2.421875 -6.957031 C 2.832031 -6.753906 3.035156 -6.679688 4.441406 -6.214844 C 4.273438 -5.808594 3.460938 -3.347656 3.3125 -2.757812 C 3.183594 -2.292969 3.125 -1.925781 3.125 -1.554688 C 3.125 -0.648438 3.570312 0 4.441406 0 L 4.457031 0 C 5.71875 0 6.640625 -1.128906 7.84375 -3.886719 C 7.863281 -3.941406 7.882812 -3.996094 7.882812 -4.050781 C 7.882812 -4.199219 7.789062 -4.328125 7.640625 -4.402344 Z M 2.21875 -8.898438 C 2.21875 -8.714844 2.109375 -8.382812 2.015625 -8.121094 C 1.738281 -8.34375 1.574219 -8.675781 1.574219 -8.972656 C 1.574219 -9.175781 1.683594 -9.324219 1.925781 -9.324219 C 2.070312 -9.324219 2.21875 -9.214844 2.21875 -8.898438 Z M 2.21875 -8.898438 "/></g></g></g><g fill="#545454" fill-opacity="1"><g transform="translate(98.488311, 106.926669)"><g><path d="M 2 -10.621094 C 1.8125 -10.488281 1.777344 -10.269531 1.851562 -10.082031 C 1.960938 -9.917969 2.164062 -9.84375 2.367188 -9.953125 L 4.921875 -11.636719 C 5.125 -11.765625 5.160156 -12.027344 5.050781 -12.210938 C 4.941406 -12.394531 4.679688 -12.46875 4.496094 -12.339844 Z M 4.238281 -4.402344 C 4.179688 -4.421875 4.144531 -4.441406 4.089844 -4.441406 C 3.941406 -4.441406 3.792969 -4.347656 3.71875 -4.199219 C 3.035156 -2.683594 2.183594 -0.777344 1.035156 -0.777344 C 0.648438 -0.777344 0.480469 -1.015625 0.480469 -1.554688 C 0.480469 -2.351562 0.8125 -3.199219 2.609375 -8.25 C 2.71875 -8.566406 2.480469 -8.75 2.238281 -8.75 C 2.089844 -8.75 1.941406 -8.660156 1.886719 -8.492188 C 1.074219 -6.382812 -0.242188 -2.996094 -0.296875 -1.554688 C -0.332031 -0.703125 0.148438 0 1.035156 0 C 2.589844 0 3.550781 -1.886719 4.441406 -3.886719 C 4.457031 -3.941406 4.476562 -3.996094 4.476562 -4.050781 C 4.476562 -4.199219 4.386719 -4.347656 4.238281 -4.402344 Z M 4.238281 -4.402344 "/></g></g></g><g fill="#545454" fill-opacity="1"><g transform="translate(101.891841, 106.926669)"><g><path d="M 8.289062 -4.402344 C 8.234375 -4.421875 8.175781 -4.441406 8.121094 -4.441406 C 7.972656 -4.441406 7.84375 -4.347656 7.769531 -4.199219 L 7.753906 -4.144531 C 7.140625 -2.773438 6.253906 -0.777344 5.105469 -0.777344 C 4.71875 -0.777344 4.550781 -1 4.550781 -1.554688 C 4.550781 -2.367188 5.160156 -3.976562 5.828125 -5.847656 L 6.753906 -8.324219 C 6.84375 -8.546875 6.699219 -8.84375 6.402344 -8.84375 C 6.234375 -8.84375 6.085938 -8.75 6.03125 -8.601562 C 5.9375 -8.363281 5.828125 -8.085938 5.71875 -7.769531 C 5.382812 -8.4375 4.808594 -8.75 4.035156 -8.75 C 1.8125 -8.75 -0.0546875 -4.421875 -0.0546875 -2 C -0.0546875 -0.886719 0.425781 0 1.460938 0 C 2.257812 0 3.035156 -0.519531 3.773438 -1.554688 C 3.773438 -0.648438 4.21875 0 5.105469 0 C 6.769531 0 7.769531 -2.277344 8.472656 -3.828125 L 8.492188 -3.886719 C 8.511719 -3.941406 8.527344 -3.996094 8.527344 -4.050781 C 8.527344 -4.199219 8.4375 -4.328125 8.289062 -4.402344 Z M 1.441406 -0.777344 C 0.886719 -0.777344 0.722656 -1.3125 0.722656 -2.128906 C 0.757812 -3.960938 2.332031 -7.9375 4.035156 -7.972656 C 4.699219 -7.972656 5.179688 -7.472656 5.21875 -6.625 L 4.773438 -5.4375 C 4.035156 -3.550781 2.941406 -0.777344 1.441406 -0.777344 Z M 1.441406 -0.777344 "/></g></g></g><g fill="#545454" fill-opacity="1"><g transform="translate(109.346304, 106.926669)"><g/></g></g><g fill="#545454" fill-opacity="1"><g transform="translate(114.895534, 106.926669)"><g><path d="M 8.269531 -3.902344 C 8.382812 -4.164062 8.175781 -4.441406 7.898438 -4.441406 C 7.753906 -4.441406 7.605469 -4.347656 7.546875 -4.199219 C 6.902344 -2.664062 6.253906 -1.960938 5.476562 -1.960938 C 5.050781 -1.960938 4.734375 -2.089844 4.53125 -2.351562 C 5.382812 -3.792969 5.976562 -5.605469 5.976562 -6.769531 C 5.976562 -7.882812 5.347656 -8.714844 4.125 -8.75 C 3.199219 -8.75 2.292969 -8.105469 1.515625 -6.808594 C 0.90625 -5.808594 -0.0546875 -4.015625 -0.0546875 -1.867188 C -0.0546875 -0.796875 0.351562 0 1.554688 0 C 2.441406 0 3.386719 -0.757812 4.070312 -1.683594 C 4.476562 -1.351562 4.957031 -1.183594 5.476562 -1.183594 C 6.585938 -1.183594 7.457031 -2.035156 8.269531 -3.902344 Z M 3.976562 -4.441406 C 3.792969 -4.441406 3.625 -4.328125 3.589844 -4.144531 C 3.460938 -3.683594 3.421875 -2.867188 3.625 -2.386719 C 3.015625 -1.515625 2.238281 -0.777344 1.554688 -0.777344 C 0.960938 -0.777344 0.738281 -1.238281 0.738281 -1.90625 C 0.738281 -3.8125 1.71875 -5.605469 2.203125 -6.402344 C 2.738281 -7.328125 3.402344 -7.972656 4.105469 -7.972656 C 4.734375 -7.972656 5.199219 -7.566406 5.199219 -6.789062 C 5.199219 -5.9375 4.847656 -4.664062 4.273438 -3.515625 C 4.292969 -3.644531 4.292969 -3.792969 4.347656 -3.941406 C 4.421875 -4.199219 4.238281 -4.441406 3.976562 -4.441406 Z M 3.976562 -4.441406 "/></g></g></g><g fill="#545454" fill-opacity="1"><g transform="translate(122.128034, 106.926669)"><g><path d="M 8.214844 -4.402344 C 8.160156 -4.421875 8.105469 -4.441406 8.046875 -4.441406 C 7.898438 -4.441406 7.769531 -4.347656 7.695312 -4.199219 C 6.566406 -1.757812 5.902344 -0.777344 5.03125 -0.777344 C 4.644531 -0.777344 4.476562 -1.015625 4.476562 -1.554688 C 4.476562 -2.980469 5.921875 -5.402344 5.921875 -7.050781 C 5.921875 -8.03125 5.511719 -8.789062 4.179688 -8.789062 C 3.570312 -8.789062 2.996094 -8.4375 2.460938 -7.882812 L 2.609375 -8.25 C 2.703125 -8.492188 2.515625 -8.769531 2.238281 -8.769531 C 2.070312 -8.769531 1.925781 -8.675781 1.867188 -8.511719 C 1.148438 -6.53125 -0.0195312 -3.183594 -0.980469 -0.519531 C -1.054688 -0.296875 -0.945312 -0.09375 -0.738281 -0.0195312 C -0.535156 0.0351562 -0.316406 -0.0546875 -0.242188 -0.277344 L 1.054688 -3.941406 C 1.648438 -5.511719 3.050781 -8.011719 4.179688 -8.011719 C 4.902344 -8.011719 5.144531 -7.585938 5.144531 -7.050781 C 5.144531 -5.4375 3.699219 -3.292969 3.699219 -1.554688 C 3.699219 -0.648438 4.144531 0 5.03125 0 C 6.289062 0 7.160156 -1.089844 8.417969 -3.886719 C 8.4375 -3.941406 8.453125 -3.996094 8.453125 -4.050781 C 8.453125 -4.199219 8.363281 -4.328125 8.214844 -4.402344 Z M 8.214844 -4.402344 "/></g></g></g><g fill="#545454" fill-opacity="1"><g transform="translate(129.508512, 106.926669)"><g><path d="M 4.664062 -4.402344 C 4.605469 -4.421875 4.550781 -4.441406 4.496094 -4.441406 C 4.347656 -4.441406 4.199219 -4.347656 4.125 -4.21875 C 3.257812 -2.3125 2.367188 -0.777344 1.035156 -0.777344 C 0.667969 -0.777344 0.445312 -1.054688 0.445312 -1.554688 C 0.445312 -1.886719 0.648438 -2.71875 1.054688 -3.976562 C 1.589844 -5.550781 2.128906 -7.03125 2.644531 -8.511719 L 3.609375 -11.324219 C 3.683594 -11.527344 3.570312 -11.75 3.367188 -11.820312 C 3.164062 -11.878906 2.941406 -11.785156 2.867188 -11.582031 L 1.90625 -8.769531 C 1.367188 -7.234375 0.8125 -5.679688 0.316406 -4.21875 C -0.148438 -2.757812 -0.332031 -2.089844 -0.332031 -1.554688 C -0.332031 -0.667969 0.148438 0 1.035156 0 C 2.738281 0 3.773438 -1.574219 4.847656 -3.886719 C 4.867188 -3.941406 4.882812 -3.996094 4.882812 -4.050781 C 4.882812 -4.199219 4.792969 -4.328125 4.664062 -4.402344 Z M 4.664062 -4.402344 "/></g></g></g><g fill="#545454" fill-opacity="1"><g transform="translate(133.31898, 106.926669)"><g><path d="M 3.015625 -9.695312 C 3.367188 -9.695312 3.644531 -9.972656 3.644531 -10.324219 C 3.644531 -10.675781 3.367188 -10.953125 3.015625 -10.953125 C 2.664062 -10.953125 2.367188 -10.675781 2.367188 -10.324219 C 2.367188 -9.972656 2.664062 -9.695312 3.015625 -9.695312 Z M 4.238281 -4.402344 C 4.179688 -4.421875 4.144531 -4.441406 4.089844 -4.441406 C 3.941406 -4.441406 3.792969 -4.347656 3.71875 -4.199219 C 3.035156 -2.683594 2.183594 -0.777344 1.035156 -0.777344 C 0.648438 -0.777344 0.480469 -1.015625 0.480469 -1.554688 C 0.480469 -2.351562 0.8125 -3.199219 2.609375 -8.25 C 2.71875 -8.566406 2.480469 -8.75 2.238281 -8.75 C 2.089844 -8.75 1.941406 -8.660156 1.886719 -8.492188 C 1.074219 -6.382812 -0.242188 -2.996094 -0.296875 -1.554688 C -0.332031 -0.703125 0.148438 0 1.035156 0 C 2.589844 0 3.550781 -1.886719 4.441406 -3.886719 C 4.457031 -3.941406 4.476562 -3.996094 4.476562 -4.050781 C 4.476562 -4.199219 4.386719 -4.347656 4.238281 -4.402344 Z M 4.238281 -4.402344 "/></g></g></g><g fill="#545454" fill-opacity="1"><g transform="translate(136.72251, 106.926669)"><g><path d="M 8.214844 -4.402344 C 8.160156 -4.421875 8.105469 -4.441406 8.046875 -4.441406 C 7.898438 -4.441406 7.769531 -4.347656 7.695312 -4.199219 C 6.566406 -1.757812 5.902344 -0.777344 5.03125 -0.777344 C 4.644531 -0.777344 4.476562 -1.015625 4.476562 -1.554688 C 4.476562 -2.980469 5.921875 -5.402344 5.921875 -7.050781 C 5.921875 -8.03125 5.511719 -8.789062 4.179688 -8.789062 C 3.570312 -8.789062 2.996094 -8.4375 2.460938 -7.882812 L 2.609375 -8.25 C 2.703125 -8.492188 2.515625 -8.769531 2.238281 -8.769531 C 2.070312 -8.769531 1.925781 -8.675781 1.867188 -8.511719 C 1.148438 -6.53125 -0.0195312 -3.183594 -0.980469 -0.519531 C -1.054688 -0.296875 -0.945312 -0.09375 -0.738281 -0.0195312 C -0.535156 0.0351562 -0.316406 -0.0546875 -0.242188 -0.277344 L 1.054688 -3.941406 C 1.648438 -5.511719 3.050781 -8.011719 4.179688 -8.011719 C 4.902344 -8.011719 5.144531 -7.585938 5.144531 -7.050781 C 5.144531 -5.4375 3.699219 -3.292969 3.699219 -1.554688 C 3.699219 -0.648438 4.144531 0 5.03125 0 C 6.289062 0 7.160156 -1.089844 8.417969 -3.886719 C 8.4375 -3.941406 8.453125 -3.996094 8.453125 -4.050781 C 8.453125 -4.199219 8.363281 -4.328125 8.214844 -4.402344 Z M 8.214844 -4.402344 "/></g></g></g><g fill="#545454" fill-opacity="1"><g transform="translate(144.102988, 106.926669)"><g><path d="M 6.699219 -4.402344 C 6.492188 -4.476562 6.273438 -4.386719 6.179688 -4.199219 C 5.144531 -1.8125 3.960938 -0.738281 2.441406 -0.777344 C 1.332031 -0.8125 0.738281 -1.460938 0.777344 -2.515625 C 0.796875 -2.90625 0.851562 -3.257812 0.980469 -3.738281 C 3.035156 -4.238281 5.789062 -5.421875 5.789062 -7.382812 C 5.789062 -8.269531 5.144531 -8.75 4.21875 -8.75 C 2.035156 -8.75 0.109375 -4.902344 0 -2.535156 C -0.0351562 -1.015625 0.886719 0 2.421875 0 C 4.292969 0 5.699219 -1.222656 6.902344 -3.886719 C 6.917969 -3.941406 6.9375 -3.976562 6.9375 -4.035156 C 6.9375 -4.179688 6.84375 -4.328125 6.699219 -4.402344 Z M 1.277344 -4.625 C 1.867188 -6.050781 2.941406 -7.972656 4.21875 -7.972656 C 4.625 -7.972656 5.015625 -7.882812 5.015625 -7.382812 C 5.015625 -6.011719 2.8125 -5.105469 1.277344 -4.625 Z M 1.277344 -4.625 "/></g></g></g></svg>