<svg xmlns="http://www.w3.org/2000/svg" width="32" height="32" viewBox="0 0 32 32"><g transform="translate(0 -1020.362)"><circle cx="16" cy="1036.362" r="16" fill="#ffa40b" fill-rule="evenodd"/><path fill="#ff7712" style="line-height:normal;text-indent:0;text-align:start;text-decoration-line:none;text-decoration-style:solid;text-decoration-color:#000;text-transform:none;block-progression:tb;isolation:auto;mix-blend-mode:normal" d="M 19.386719 31.617188 A 16 16 0 0 0 20.279297 31.416016 A 16 16 0 0 0 21.796875 30.912109 A 16 16 0 0 0 23.257812 30.259766 A 16 16 0 0 0 24.644531 29.462891 A 16 16 0 0 0 25.945312 28.533203 A 16 16 0 0 0 27.146484 27.478516 A 16 16 0 0 0 28.238281 26.306641 A 16 16 0 0 0 29.205078 25.035156 A 16 16 0 0 0 30.041016 23.669922 A 16 16 0 0 0 30.736328 22.230469 A 16 16 0 0 0 31.095703 21.248047 L 19.158203 9.3105469 C 19.146773 9.2991163 19.132646 9.2906044 19.121094 9.2792969 C 19.032724 9.1927971 18.929192 9.1239422 18.833984 9.0449219 C 18.713458 8.9448658 18.599376 8.837185 18.46875 8.75 C 18.304147 8.6401551 18.124219 8.5544305 17.945312 8.4667969 C 17.870084 8.4299472 17.802125 8.3822836 17.724609 8.3496094 C 17.531094 8.2680094 17.32535 8.21413 17.119141 8.1601562 C 17.040092 8.139482 16.967405 8.1042728 16.886719 8.0878906 C 16.625311 8.0347496 16.353936 8.0110814 16.078125 8.0058594 C 16.050172 8.0053301 16.024171 7.9980591 15.996094 7.9980469 L 15.994141 7.9980469 L 15.994141 7.9960938 C 13.514783 7.9960938 11.494139 10.016694 11.494141 12.496094 A 0.50004997 0.50004997 0 0 0 11.517578 12.654297 C 11.560158 14.232597 12.243952 15.614031 13.048828 16.894531 C 13.87984 18.216631 14.84296 19.457356 15.460938 20.722656 A 0.50005 0.50005 0 0 0 15.691406 20.953125 L 17.617188 22.878906 C 17.497778 22.895943 17.3779 22.914324 17.255859 22.927734 L 12.289062 17.960938 A 0.50005 0.50005 0 0 0 11.628906 17.300781 C 10.508267 17.770781 9.6923396 18.402894 9.2773438 19.183594 C 8.8623475 19.964194 8.9341724 20.906528 9.5 21.673828 C 9.6073141 21.819428 9.7270284 21.957444 9.859375 22.089844 L 19.386719 31.617188 z " color="#000" font-family="sans-serif" font-weight="400" transform="translate(0 1020.362)"/><path fill="#fff" style="line-height:normal;text-indent:0;text-align:start;text-decoration-line:none;text-decoration-style:solid;text-decoration-color:#000;text-transform:none;block-progression:tb;isolation:auto;mix-blend-mode:normal" d="m 7.9941406,-0.00195313 c -2.4793586,0 -4.5000026,2.02060003 -4.5,4.50000003 A 0.50004997,0.50004997 0 0 0 3.5175781,4.65625 c 0.042577,1.5783023 0.7263741,2.9597158 1.53125,4.2402344 0.8310123,1.3220996 1.7941346,2.5628246 2.4121094,3.8281246 a 0.50005,0.50005 0 0 0 0.8945313,0.0098 c 0.6488493,-1.2643 1.6614042,-2.505925 2.5351562,-3.828125 0.873752,-1.3221 1.619141,-2.7499906 1.619141,-4.4003906 a 0.50005,0.50005 0 0 0 -0.0332,-0.1855469 c -0.0957,-2.3957782 -2.06383,-4.32226563 -4.4824214,-4.32226563 z m 0,1.00000001 c 1.9389182,0 3.5000024,1.56110002 3.5000004,3.50000002 a 0.50004997,0.50004997 0 0 0 0.0098,0.1074219 c -0.02981,1.3077973 -0.633569,2.5187512 -1.447265,3.75 C 9.3688034,9.3963687 8.5911285,10.471091 7.9199219,11.587891 7.2827996,10.475891 6.5487837,9.4030344 5.8964844,8.3652344 5.1026168,7.1022344 4.5097656,5.8596594 4.5097656,4.5058594 a 0.50005,0.50005 0 0 0 -0.00781,-0.087891 c 0.04333,-1.9006771 1.580712,-3.41992152 3.492185,-3.41992152 z M 7.9941406,3 c -0.8225048,0 -1.5,0.6775 -1.5,1.5 0,0.8225 0.6774952,1.5 1.5,1.5 0.8225048,0 1.5,-0.6775 1.5,-1.5 0,-0.8225 -0.6774952,-1.5 -1.5,-1.5 z m 0,1 c 0.2820647,0 0.5,0.218 0.5,0.5 0,0.2821 -0.2179353,0.5 -0.5,0.5 -0.2820647,0 -0.5,-0.2179 -0.5,-0.5 0,-0.282 0.2179353,-0.5 0.5,-0.5 z m 4.0898434,5.2265625 a 0.50005,0.50005 0 0 0 -0.179687,0.9667965 c 0.996679,0.4037 1.637341,0.933022 1.914062,1.419922 0.276721,0.4869 0.270258,0.907681 -0.0918,1.425781 -0.724095,1.036101 -3.035585,1.953644 -5.6738276,1.964844 -2.6382658,0.011 -4.9819162,-0.882975 -5.7480469,-1.921875 -0.383069,-0.5195 -0.4020658,-0.943234 -0.1445313,-1.427734 0.2575347,-0.4844 0.8746083,-1.018288 1.8554688,-1.429688 A 0.50005,0.50005 0 1 0 3.6289062,9.3027344 c -1.1206391,0.47 -1.9365665,1.1021126 -2.3515624,1.8828126 -0.41499615,0.7806 -0.34317141,1.722934 0.2226562,2.490234 1.1316537,1.5347 3.711068,2.340325 6.5585938,2.328125 2.8475002,-0.012 5.4027222,-0.837325 6.4882812,-2.390625 0.542783,-0.7767 0.579554,-1.72184 0.140625,-2.49414 -0.438929,-0.7723 -1.273549,-1.393916 -2.408203,-1.853516 A 0.50005,0.50005 0 0 0 12.083984,9.226562 Z" color="#000" font-family="sans-serif" font-weight="400" overflow="visible" transform="translate(8 1028.361)"/></g></svg>